# xmcd
#
# Track frame offsets:
#	150
#	23288
#	41499
#	59655
#	75638
#	99840
#	115135
#	133840
#	156230
#	172271
#	187589
#
# Disc length: 2729 seconds
# Revision: 0
# Processed by: cddbd v1.5.2PL0 Copyright (c) Steve Scherf et al.
# Submitted via: dBpowerAMP V12.0
#
DISCID=830aa70b
DTITLE=Sonny Landreth - Elemental Journey
DYEAR=2012
DGENRE=Blues Instrumental
TTITLE0=Gaia Tribe
TTITLE1=For You And Forever
TTITLE2=Heavy Heart Rising
TTITLE3=Wonderide
TTITLE4=Passionola
TTITLE5=Letting Go
TTITLE6=Elemental Journey
TTITLE7=Brave New Girl
TTITLE8=Forgotten Story
TTITLE9=Reckless Beauty
TTITLE10=Opening Sky
EXTD=
EXTT0=
EXTT1=
EXTT2=
EXTT3=
EXTT4=
EXTT5=
EXTT6=
EXTT7=
EXTT8=
EXTT9=
EXTT10=
PLAYORDER=
